<svg enable-background="new 0 0 21.3 22" viewBox="0 0 21.3 22" xmlns="http://www.w3.org/2000/svg"><path fill="#fff" d="m2.5 1.6-1.3 1.3 3 3c-1.7.7-2.9 2.4-2.9 4.3 0 2.7 2.1 4.8 4.7 4.8h3.8v-1.8h-3.8c-.8 0-1.5-.298-2-.898-.6-.5-.9-1.2-.9-2s.3-1.5.9-2c.5-.4 1.1-.7 1.7-.9l2.1 2.1h-.801v1.8h2.6l2 2v1.8h1.8l5.3 5.3 1.3-1.3-17.5-17.5zm6.5 4 .801.801v-.801zm2.6.0996v1.8h3.8c.8 0 1.5.3 2 .9.6.5.9 1.2.9 2s-.3 1.5-.9 2c-.3.3-.6.499-.9.699l1.3 1.3c1.4-.8 2.3-2.3 2.3-4 0-2.6-2.1-4.7-4.7-4.7h-3.8zm1.3 3.8 1.6 1.6v-1.6z"/></svg>