<svg enable-background="new 0 0 277.2 58.2" version="1.1" viewBox="0 0 277 58.2" xmlns="http://www.w3.org/2000/svg">
	<g fill="#fff">
		<path d="m101 26.8c-0.5-0.5-1.2-0.8-2-0.8h-13.8v-9h15.4c0.8 0 1.4-0.3 2-0.8 0.5-0.5 0.8-1.2 0.8-2s-0.3-1.4-0.8-2c-0.5-0.5-1.2-0.8-2-0.8h-18.3c-0.8 0-1.5 0.3-2 0.9s-0.8 1.3-0.8 2.1v28.9c0 0.8 0.3 1.5 0.8 2 0.6 0.6 1.2 0.8 2 0.8s1.5-0.3 2.1-0.8c0.6-0.6 0.9-1.2 0.9-2.1v-11.7h13.8c0.8 0 1.4-0.3 2-0.8 0.5-0.5 0.8-1.2 0.8-2-0.1-0.7-0.4-1.4-0.9-1.9z"/>
		<path d="m119 21.3c-1.6-0.9-3.6-1.4-5.9-1.4-2.9 0-5.7 0.6-8.5 1.8-1.1 0.5-1.7 1.3-1.7 2.5 0 0.7 0.3 1.3 0.7 1.8 0.5 0.5 1.1 0.7 1.8 0.7 0.2 0 0.5 0 0.9-0.1 1.1-0.4 2.1-0.6 3-0.8s1.9-0.3 3-0.3c2 0 3.4 0.4 4.3 1.2 0.8 0.7 1.2 1.9 1.3 3.6h-5c-3.7 0-6.6 0.8-8.5 2.2-2 1.5-3.1 3.6-3.1 6.2 0 1.6 0.4 3 1.2 4.2s1.8 2.1 3.1 2.8c1.3 0.6 2.7 0.9 4.2 0.9 3.2 0 5.9-0.9 8.2-2.7 0.1 0.6 0.4 1.2 0.8 1.6 0.6 0.6 1.2 0.8 2 0.8s1.5-0.3 2.1-0.8c0.6-0.6 0.9-1.2 0.9-2.1v-13.4c0-1.7-0.4-3.4-1.1-4.9-0.9-1.6-2.1-2.8-3.7-3.8zm-1.1 13.8v2.9c-0.8 0.8-1.7 1.6-2.9 2.1-1.2 0.6-2.4 0.9-3.7 0.9-1.6 0-2.7-0.3-3.3-0.8s-0.9-1.3-0.9-2.2c0-2 2.1-3 6.4-3h4.4v0.1z"/>
		<path d="m141 19.9h-0.2c-2.4 0-4.7 1.1-6.7 3.1 0-0.8-0.3-1.5-0.9-2-0.6-0.6-1.3-0.9-2.1-0.9s-1.5 0.3-2.1 0.9c-0.5 0.6-0.8 1.3-0.8 2.1v20.2c0 0.8 0.3 1.5 0.8 2 0.6 0.6 1.2 0.8 2 0.8s1.5-0.3 2.1-0.8c0.6-0.6 0.9-1.2 0.9-2.1v-14c0.8-1.1 1.7-2 2.8-2.6 1.1-0.7 2.4-1 3.8-1h0.2c0.8 0 1.5-0.3 2.1-0.8s0.9-1.2 0.9-2-0.3-1.5-0.8-2c-0.5-0.6-1.2-0.9-2-0.9z"/>
		<path d="m179 21.4c-1.3-1-2.9-1.5-4.9-1.5-3.6 0-6.5 1.4-8.6 4.1-0.6-1-1.4-1.8-2.3-2.6-1.4-1-3.1-1.6-5-1.6-2.1 0-3.9 0.5-5.3 1.4-0.7 0.5-1.4 1-2 1.7 0-0.7-0.3-1.4-0.9-1.9-0.6-0.6-1.3-0.9-2.1-0.9s-1.5 0.3-2.1 0.9c-0.5 0.6-0.8 1.3-0.8 2.1v20.2c0 0.8 0.3 1.5 0.8 2 0.6 0.6 1.2 0.8 2 0.8s1.5-0.3 2.1-0.8c0.6-0.6 0.9-1.2 0.9-2.1v-13.8c0.7-1.2 1.6-2.2 2.5-2.9s2.1-1.1 3.5-1.1c1.5 0 2.6 0.4 3.1 1.1 0.6 0.8 0.9 2.2 0.9 4.1v12.7c0 0.8 0.3 1.5 0.8 2 0.6 0.6 1.2 0.8 2 0.8s1.5-0.3 2.1-0.8c0.6-0.6 0.9-1.2 0.9-2.1v-13.8c0.7-1.2 1.6-2.2 2.5-2.9s2.1-1.1 3.5-1.1c1.5 0 2.6 0.4 3.1 1.1 0.6 0.8 0.9 2.2 0.9 4.1v12.7c0 0.8 0.3 1.5 0.8 2 0.6 0.6 1.2 0.8 2 0.8s1.5-0.3 2.1-0.8c0.6-0.6 0.9-1.2 0.9-2.1v-13.5c0-1.6-0.3-3.2-0.9-4.6-0.3-1.5-1.2-2.8-2.5-3.7z"/>
		<path d="m208 40.2h-14.7v-26c0-0.8-0.3-1.5-0.9-2.1s-1.3-0.9-2.1-0.9-1.5 0.3-2.1 0.9c-0.5 0.6-0.8 1.3-0.8 2.1v28c0 1 0.4 1.9 1.1 2.6s1.6 1.1 2.6 1.1h16.8c0.8 0 1.5-0.3 2.1-0.8 0.6-0.6 0.9-1.2 0.9-2.1 0-0.8-0.3-1.5-0.9-2.1-0.5-0.5-1.2-0.7-2-0.7z"/>
		<path d="m216 10.5c-0.9 0-1.6 0.3-2.2 0.9s-0.9 1.4-0.9 2.2v0.201c0 0.9 0.3 1.6 0.9 2.2s1.4 0.9 2.2 0.9h0.301c0.9 0 1.6-0.3 2.2-0.9s0.9-1.4 0.9-2.2v-0.201c0-0.9-0.3-1.6-0.9-2.2s-1.4-0.9-2.2-0.9h-0.301zm0.301 9.6c-0.8 0-1.5 0.3-2.1 0.9-0.5 0.6-0.801 1.3-0.801 2.1v20.2c0 0.8 0.301 1.5 0.801 2 0.6 0.6 1.2 0.799 2 0.799s1.5-0.299 2.1-0.799c0.6-0.6 0.9-1.2 0.9-2.1v-20.1c0-0.8-0.301-1.5-0.801-2.1-0.6-0.6-1.3-0.9-2.1-0.9z"/>
		<path d="m239 23c0-0.7-0.2-1.4-0.7-1.9s-1.1-0.7-1.9-0.7h-5.2v-1.8c0-1.3 0.3-2.3 0.7-2.7 0.5-0.5 1.3-0.7 2.4-0.7 0.1 0 0.5 0.1 1.1 0.1 1.2 0.3 2.3 0.2 3-0.6 0.5-0.5 0.7-1.1 0.7-1.8 0-0.5-0.1-1-0.4-1.4s-0.6-0.7-1.1-0.9c-1.4-0.7-2.9-1-4.4-1-1.3 0-2.6 0.3-3.8 0.9s-2.2 1.6-3 2.9c-0.7 1.3-1.1 3-1.1 5v2h-2c-0.7 0-1.3 0.3-1.8 0.7-0.5 0.5-0.8 1.1-0.8 1.9 0 0.7 0.3 1.3 0.8 1.8s1.1 0.8 1.8 0.8h2v17.8c0 0.8 0.3 1.5 0.8 2 0.5 0.6 1.2 0.8 2 0.8s1.5-0.3 2.1-0.8c0.6-0.6 0.9-1.2 0.9-2.1v-17.7h5.2c0.7 0 1.4-0.3 1.9-0.8 0.6-0.5 0.8-1.1 0.8-1.8z"/>
		<path d="m257 21.6c-1.8-1.2-4-1.7-6.4-1.7-2.6 0-4.9 0.6-6.7 1.9-1.8 1.2-3.2 2.9-4 4.9-0.9 2-1.3 4.2-1.3 6.5 0 4.2 1.2 7.4 3.4 9.8 2.3 2.3 5.5 3.5 9.5 3.5 1.9 0 3.6-0.2 4.8-0.5 1.2-0.4 2.5-0.9 3.8-1.6 1.3-0.8 1.6-1.7 1.6-2.4s-0.3-1.4-0.8-1.9-1.1-0.7-1.8-0.7c-0.4 0-0.8 0.1-1.2 0.3-0.9 0.4-1.8 0.8-2.8 1-0.9 0.2-2 0.4-3.3 0.4-2.3 0-4.1-0.6-5.3-1.7-1.1-1-1.8-2.2-2.1-3.8h15.1c0.9 0 1.6-0.3 2.1-0.8s0.8-1.2 0.8-2c0-2.2-0.5-4.3-1.4-6.3-0.8-2.1-2.1-3.7-4-4.9zm-12.5 8.8c0.2-1.1 0.5-2 1-2.7 0.6-0.9 1.4-1.6 2.3-2 1.9-0.9 3.8-0.9 5.7 0 0.9 0.4 1.7 1.1 2.3 2 0.5 0.7 0.8 1.6 1 2.7h-12.3z"/>
		<path d="m270 9.6c-1.2 0-2.4 0.3-3.5 0.9s-1.9 1.4-2.5 2.5-0.9 2.2-0.9 3.4 0.3 2.4 0.9 3.4c0.6 1.1 1.4 1.9 2.5 2.5s2.2 0.898 3.5 0.898c1.2 0 2.4-0.298 3.5-0.898s1.9-1.5 2.5-2.5c0.6-1.1 0.9-2.2 0.9-3.4-0.1-1.1-0.4-2.3-1-3.4s-1.4-1.9-2.5-2.5-2.2-0.9-3.4-0.9zm0.0996 1.4c1 0 1.9 0.199 2.7 0.699 0.9 0.5 1.5 1.2 2 2 0.5 0.9 0.699 1.8 0.699 2.8-0.1 1-0.299 1.9-0.799 2.8s-1.2 1.5-2 2-1.8 0.699-2.7 0.699-1.9-0.199-2.7-0.699-1.5-1.2-2-2c-0.5-0.9-0.701-1.8-0.701-2.8s0.201-1.9 0.701-2.8 1.2-1.5 2-2 1.8-0.699 2.8-0.699zm-2.7 1.8v7.2h1.8v-2.6h0.6l1.8 2.6h2.1l-2-2.9c0.8-0.4 1.2-1.1 1.2-2.1 0-0.8-0.199-1.3-0.699-1.7s-1.2-0.5-2.2-0.5h-2.6zm1.7 1.5h0.9c0.5 0 0.8 0.0992 0.9 0.199s0.199 0.3 0.199 0.6c0 0.2-0.0992 0.4-0.199 0.5s-0.201 0.201-0.301 0.201c-0.2 0-0.399 0.0996-0.699 0.0996h-0.801v-1.6z"/>
		<path d="m28.3 0.227c-1.48 0.0256-2.97 0.156-4.43 0.387-12.9 2.12-23.4 13.6-23.8 27.2 0.056 1.09-0.24 5.62 0.596 3.47 0.767-1.39 1.99-3.58 2.96-5.15 0.91-1.31 1.59-2.9 2.51-4.26 0.334-0.503 0.708-1.07 0.869-1.6 0.714-0.941 1.16-1.89 1.72-2.87 5.94-10.7 20.5-14.8 30.4-9.53-0.583 0.451-3.8 2.94-4.86 3.76-0.388 0.232-0.135 0.337-0.727 0.197-1.87-0.215-3.66 0.32-5.22 0.785-0.395 0.279-0.863 0.396-1.26 0.609-0.516 0.122-1.07 0.765-1.45 0.568-0.24-0.212-0.498-0.41-0.771-0.592-6.25-3.87-9.34 1.07-10.9 4.23-1.41 2.14-10.9 16.5-10.8 16.5-1.01 1.4-1.31 2.36-1.32 3.87 0.021 0.258 0.12 0.637 0.0996 0.918 0.458 1.52 1.4 3.02 2.37 4.82 1.09 1.87 3.61 3.04 5.53 2.98 0.807-0.042 1.82 0.121 2.5-0.4l0.6-0.301 3.7-1.8c2.15 0.099 4.52-0.395 6.2-1.1 1.68-0.682 3.11-1.58 4-2.3 0.081 0.051 2.48 1.56 3.66 2.3 0.507 0.327 0.503 0.314 0.764 0.473 1.43 0.982 3.08 1.2 3.58 2.73 0.041 0.076 1.14 2.15 1.9 3.57 0.544 1.12 0.88 1.34 0.508 1.4-2.61 0.974-5.4 1.45-8.21 1.42-4.54-0.017-8.79-1.34-12.6-3.7-0.691 0.364-2.25 1.13-2.89 1.34-1.05 0.389-2 0.326-3.14 0.355-0.126 0.017-0.515-0.0795-0.229 0.145 2.41 2.44 4.21 3.19 5.14 3.65 4.32 2.37 9.22 3.64 14.1 3.6 4.66-0.029 9.01-1.15 13.2-3.24 0.672-0.325 1.06-0.94 1.35-1.65 0.295-0.652 0.0727-1.61-0.236-2.01-0.079-0.143-4.1-7.3-4.1-7.3l-0.0371-0.00391c-1.79-3.37-3.34-3.48-5.7-4.9l-6-3.8c-0.806-0.433-1.96-0.633-2.75-0.0605-0.423 0.128-0.58 0.418-0.762 0.576-0.997 1.3-5 3.42-7.11 3.18-0.952-0.034-2.17-0.0115-2.6 0.311-0.21 0.107-2.07 1.06-3.26 1.67-0.767 0.34-0.847 0.546-1.2 0.516-0.527-0.034-1.1-0.127-1.28-0.479-0.11-0.328-0.226-0.3 0.137-0.438 1.02-0.503 1.63-1.56 1.5-2.8-0.068-0.624-0.332-1.15-0.729-1.56-0.353-0.424-1.14-0.656-0.926-0.662 0.628-0.941 9.86-15.2 9.94-15.2 0.23-0.411 0.263-0.803 0.576-1.24 0.447-0.571 0.651-1.34 1.17-1.26 0.412 0.104 0.909 0.233 1.01 0.674 0.132 0.319 0.202 0.822 0.293 1.02 0.316 0.182 0.513 0.278 0.652 0.535 0.34 0.438 0.801 0.705 1.34 0.857 0.909 0.322 2.27-0.143 2.71-0.613 0.296-0.155 3.38-1.91 3.4-1.89 0.173-0.039 7.65e-4 0.278 0.00976 0.41-0.248 1.16-0.262 1.44-0.547 1.88-0.666 0.819-1.77 1.11-2.47 1.28-1.41 0.434-2.21 1.95-1.72 3.43 0.347 1.41 2.37 2.26 3.18 1.78 0.577 0 4.89-1.53 6.07-4.26 0.253-0.343 0.895-2.16 1.18-5.24 0.646-0.535 9.78-7.53 10.4-8.11 0.752-0.689 1-2.34-0.0156-3.21-4.88-4.13-11.3-5.98-17.8-5.87zm22.8 11.5c-0.534-0.0041-1.07 0.141-1.52 0.441-1.3 0.8-1.6 2.6-0.799 3.8 2.6 3.9 4 8.4 4 13.1s-1.4 9.2-4 13.1c-0.8 1.3-0.501 3 0.799 3.8 0.5 0.3 1 0.5 1.5 0.5 0.9 0 1.8-0.399 2.3-1.2 3.2-4.8 4.9-10.4 4.9-16.1-0.1-5.9-1.8-11.4-4.9-16.2-0.5-0.812-1.39-1.24-2.28-1.24zm-7.06 4.7c-0.531-0.0041-1.08 0.141-1.56 0.441-1.3 0.8-1.6 2.5-0.801 3.8 2.2 3.2 3 7.1 2.3 10.9-0.4 2.1-1.1 4-2.3 5.8-0.8 1.3-0.499 3 0.801 3.8 0.5 0.3 1 0.5 1.5 0.5 0.9 0 1.8-0.399 2.3-1.2 1.6-2.4 2.7-5.1 3.2-7.9 0.8-5.2-0.299-10.5-3.2-14.9-0.5-0.812-1.35-1.23-2.24-1.24zm-5.15 7.83c-0.202 0.00156-0.407 0.0402-0.607 0.115-1.7 0.9-2.8 2.7-2.8 4.7v0.0996c0 1.9 1.1 3.7 2.8 4.6 0.8 0.4 1.7-0.00117 2-0.701 0.5-1.3 0.699-2.6 0.699-4s-0.199-2.7-0.699-3.9c-0.225-0.6-0.788-0.919-1.39-0.914z"/>
	</g>
</svg>
