<svg width="24" height="24" version="1.1" xmlns="http://www.w3.org/2000/svg">
 <path d="m12 23-4.04-4.07h8.11zm-9.35-6.6q-0.66 0-1.16-0.495t-0.495-1.16v-12.1q0-0.66 0.495-1.16t1.16-0.495h18.7q0.66 0 1.16 0.495t0.495 1.16v12.1q0 0.66-0.495 1.16t-1.16 0.495zm0-1.65h18.7v-12.1h-18.7zm5.06-1.79h8.61v-1.65h-8.61zm-3.49-3.44h1.65v-1.65h-1.65zm3.49 0h1.65v-1.65h-1.65zm3.46 0h1.65v-1.65h-1.65zm3.49 0h1.65v-1.65h-1.65zm3.46 0h1.65v-1.65h-1.65zm-13.9-3.44h1.65v-1.65h-1.65zm3.49 0h1.65v-1.65h-1.65zm3.46 0h1.65v-1.65h-1.65zm3.49 0h1.65v-1.65h-1.65zm3.46 0h1.65v-1.65h-1.65zm-15.5 8.66v-12.1z"/>
</svg>
